<?xml version="1.0" encoding="UTF-8" standalone="no"?>
<svg width="24px" height="24px" viewBox="0 0 24 24" version="1.1" xmlns="http://www.w3.org/2000/svg" xmlns:xlink="http://www.w3.org/1999/xlink">
    <!-- Generator: Sketch 39.1 (31720) - http://www.bohemiancoding.com/sketch -->
    <title>facebook</title>
    <desc>Created with Sketch.</desc>
    <defs></defs>
    <g id="Page-1" stroke="none" stroke-width="1" fill="none" fill-rule="evenodd">
        <g id="Desktop-Concept-2" transform="translate(-48.000000, -4515.000000)" fill="#2A5572">
            <g id="footer" transform="translate(-22.000000, 4267.000000)">
                <g id="Group-32" transform="translate(70.000000, 239.000000)">
                    <g id="Group-33" transform="translate(0.000000, 7.000000)">
                        <g id="social-media">
                            <path d="M22.5,2 L1.5,2 C0.6796875,2 0,2.6796875 0,3.5 L0,24.5 C0,25.3203125 0.6796875,26 1.5,26 L12.8320312,26 L12.8320312,16.671875 L9.83203125,16.671875 L9.83203125,13.2148438 L12.8320312,13.2148438 L12.8320312,10.2265625 C12.8320312,7.49609375 14.4960938,5.66796875 17.7890625,5.66796875 C19.2421875,5.66796875 20.25,5.83203125 20.25,5.83203125 L20.25,8.94921875 L18,8.94921875 C17.0039062,8.94921875 16.5,9.51171875 16.5,10.4960938 L16.5,13.2148438 L20.0039062,13.2148438 L19.5,16.671875 L16.5,16.671875 L16.5,26 L22.5,26 C23.3203125,26 24,25.3203125 24,24.5 L24,3.5 C24,2.6796875 23.3203125,2 22.5,2 L22.5,2 Z" id="facebook"></path>
                        </g>
                    </g>
                </g>
            </g>
        </g>
    </g>
</svg>