<?xml version="1.0" encoding="utf-8"?>
<!-- Generator: Adobe Illustrator 16.0.4, SVG Export Plug-In . SVG Version: 6.00 Build 0)  -->
<!DOCTYPE svg PUBLIC "-//W3C//DTD SVG 1.1//EN" "http://www.w3.org/Graphics/SVG/1.1/DTD/svg11.dtd">
<svg version="1.1" id="Layer_1" xmlns="http://www.w3.org/2000/svg" xmlns:xlink="http://www.w3.org/1999/xlink" x="0px" y="0px"
	 width="98px" height="128px" viewBox="0 0 98 128" enable-background="new 0 0 98 128" xml:space="preserve">
<g>
	<g>
		<path fill="#F15F22" d="M8.22,61.865h35.111c12.317,0,22.392-9.764,22.894-21.954H31.119C18.804,39.911,8.728,49.676,8.22,61.865z
			"/>
		<path fill="#F15F22" d="M66.231,31.654c16.917,0,30.636-13.746,30.636-30.661H31.766c-16.915,0-30.631,13.715-30.631,30.625H1.133
			v23.813c2.889-13.86,14.92-23.813,29.571-23.813L66.231,31.654z"/>
		<path fill="#988E8A" d="M19.286,127.007c-11.788,0-18.153,0-18.153,0v-57.25h7.28v6.657h7.24v-6.657h7.282v6.657h7.224v-6.657
			h7.278v57.25C37.438,127.007,31.075,127.007,19.286,127.007z M22.931,85.776h-7.284v15.594h7.284V85.776z"/>
	</g>
</g>
</svg>
